<svg width="80" height="40" viewBox="0 0 80 40" fill="none" xmlns="http://www.w3.org/2000/svg">
<g clip-path="url(#clip0_29_369)">
<path d="M59.3271 24.6721C59.0238 25.9393 58.6008 27.1606 58.0681 28.3213C57.6566 29.2229 57.1779 30.0852 56.6418 30.9082C54.5435 34.1295 51.5402 36.7065 47.9943 38.282C46.4107 38.9885 44.7189 39.4918 42.9517 39.7639C41.95 39.9197 40.9238 40 39.8779 40C38.7467 40 37.6385 39.9065 36.5582 39.7246C34.8369 39.4377 33.1894 38.9295 31.6451 38.2311C28.1599 36.6557 25.2058 34.1082 23.1303 30.9344C22.5222 30.0065 21.991 29.0246 21.5435 27.9967C21.0779 26.9344 20.7041 25.8229 20.4287 24.6721H24.1615C24.8681 27.0508 26.0992 29.2033 27.7238 30.9967C29.6582 33.1361 32.15 34.7623 34.9713 35.6459C35.4894 35.8082 36.0189 35.9459 36.5582 36.0557C37.6304 36.277 38.7402 36.3934 39.8779 36.3934C40.9287 36.3934 41.9549 36.2951 42.9517 36.1049C43.5058 36 44.0517 35.8672 44.5861 35.7082C47.4812 34.841 50.0418 33.1934 52.0189 31.0115C53.65 29.2164 54.8861 27.0574 55.5943 24.6721H59.3271Z" fill="#324155"/>
<path d="M59.3271 15.3279H55.5943C53.8664 9.5082 48.9976 5.04098 42.9517 3.89508C41.9549 3.70492 40.9287 3.60656 39.8779 3.60656C38.7402 3.60656 37.6304 3.72295 36.5582 3.94426C30.6254 5.1623 25.8648 9.58853 24.1615 15.3279H20.4287C22.2795 7.59016 28.6287 1.59836 36.5582 0.27541C37.6385 0.0934426 38.7467 0 39.8779 0C40.9238 0 41.95 0.0803279 42.9517 0.236066C50.9943 1.47541 57.4566 7.50984 59.3271 15.3279Z" fill="#324155"/>
<path d="M43.7293 11.4754C43.7293 12.3475 43.4392 13.1508 42.9506 13.7967C42.249 14.7278 41.1326 15.3278 39.8769 15.3278C38.4621 15.3278 37.2261 14.5655 36.5572 13.4295C36.2179 12.8557 36.0244 12.1885 36.0244 11.4754C36.0244 10.7623 36.2179 10.0951 36.5572 9.52129C37.2261 8.38522 38.4621 7.62292 39.8769 7.62292C41.1326 7.62292 42.249 8.22292 42.9506 9.15407C43.4392 9.79997 43.7293 10.6033 43.7293 11.4754Z" fill="#324155"/>
<path d="M62.295 17.6229V22.6229H49.5458C46.4015 23.0901 43.8655 25.5377 43.1229 28.7213C43.0458 29.0475 42.9884 29.3819 42.9507 29.7246C42.9163 30.0295 42.8999 30.341 42.8999 30.6557C42.8999 30.9705 42.9163 31.2819 42.9507 31.5869C42.9688 31.7573 42.9917 31.9262 43.0212 32.0918C42.9983 32.0951 42.9737 32.0983 42.9507 32.1C41.9245 32.2278 40.854 32.2951 39.754 32.2951C38.654 32.2951 37.5835 32.2278 36.5573 32.1C36.5343 32.0983 36.5097 32.0951 36.4868 32.0918C36.5163 31.9262 36.5392 31.7573 36.5573 31.5869C36.5917 31.2819 36.6081 30.9705 36.6081 30.6557C36.6081 30.341 36.5917 30.0295 36.5573 29.7246C36.5196 29.3819 36.4622 29.0475 36.3851 28.7213C35.6425 25.5377 33.1065 23.0901 29.9622 22.6229H17.377V17.6229H25.8196C28.4163 17.6229 30.8491 17.9655 32.9294 18.5623C34.3114 18.959 35.5376 19.4655 36.5573 20.059C37.8245 20.7967 38.772 21.6688 39.2933 22.6229C39.5933 23.1705 39.754 23.7475 39.754 24.341C39.754 23.7475 39.9147 23.1705 40.2147 22.6229C40.736 21.6688 41.6835 20.7967 42.9507 20.059C43.9704 19.4655 45.1966 18.959 46.5786 18.5623C48.6589 17.9655 51.0917 17.6229 53.6884 17.6229H62.295Z" fill="#324155"/>
<path d="M3.93443 17.6229H0V22.7049H3.93443V17.6229Z" fill="#324155"/>
<path d="M9.01646 11.3934H5.08203V28.9344H9.01646V11.3934Z" fill="#324155"/>
<path d="M14.9178 4.1803H10.9834V36.1475H14.9178V4.1803Z" fill="#324155"/>
<path d="M76.0656 22.705H80V17.623H76.0656V22.705Z" fill="#324155"/>
<path d="M70.9835 28.9344H74.918V11.3935H70.9835V28.9344Z" fill="#324155"/>
<path d="M65.0822 36.1476H69.0166V4.18037H65.0822V36.1476Z" fill="#324155"/>
</g>
<defs>
<clipPath id="clip0_29_369">
<rect width="80" height="40" fill="white"/>
</clipPath>
</defs>
</svg>
