<svg width="80" height="40" viewBox="0 0 80 40" fill="none" xmlns="http://www.w3.org/2000/svg">
<g clip-path="url(#clip0_60_503)">
<path d="M59.3271 24.6719C59.0238 25.9391 58.6008 27.1604 58.0681 28.3211C57.6566 29.2227 57.1779 30.085 56.6418 30.9079C54.5435 34.1293 51.5402 36.7063 47.9943 38.2817C46.4107 38.9883 44.7189 39.4915 42.9517 39.7637C41.95 39.9194 40.9238 39.9997 39.8779 39.9997C38.7467 39.9997 37.6385 39.9063 36.5582 39.7243C34.8369 39.4375 33.1894 38.9293 31.6451 38.2309C28.1599 36.6555 25.2058 34.1079 23.1303 30.9342C22.5222 30.0063 21.991 29.0243 21.5435 27.9965C21.0779 26.9342 20.7041 25.8227 20.4287 24.6719H24.1615C24.8681 27.0506 26.0992 29.203 27.7238 30.9965C29.6582 33.1358 32.15 34.762 34.9713 35.6456C35.4894 35.8079 36.0189 35.9456 36.5582 36.0555C37.6304 36.2768 38.7402 36.3932 39.8779 36.3932C40.9287 36.3932 41.9549 36.2948 42.9517 36.1047C43.5058 35.9997 44.0517 35.867 44.5861 35.7079C47.4812 34.8407 50.0418 33.1932 52.0189 31.0112C53.65 29.2161 54.8861 27.0571 55.5943 24.6719H59.3271Z" fill="white"/>
<path d="M59.3271 15.3279H55.5943C53.8664 9.5082 48.9976 5.04098 42.9517 3.89508C41.9549 3.70492 40.9287 3.60656 39.8779 3.60656C38.7402 3.60656 37.6304 3.72295 36.5582 3.94426C30.6254 5.1623 25.8648 9.58853 24.1615 15.3279H20.4287C22.2795 7.59016 28.6287 1.59836 36.5582 0.27541C37.6385 0.0934426 38.7467 0 39.8779 0C40.9238 0 41.95 0.0803279 42.9517 0.236066C50.9943 1.47541 57.4566 7.50984 59.3271 15.3279Z" fill="white"/>
<path d="M43.7293 11.4755C43.7293 12.3476 43.4392 13.1509 42.9506 13.7968C42.249 14.728 41.1326 15.328 39.8769 15.328C38.4621 15.328 37.2261 14.5657 36.5572 13.4296C36.2179 12.8558 36.0244 12.1886 36.0244 11.4755C36.0244 10.7624 36.2179 10.0952 36.5572 9.52141C37.2261 8.38534 38.4621 7.62305 39.8769 7.62305C41.1326 7.62305 42.249 8.22305 42.9506 9.15419C43.4392 9.8001 43.7293 10.6034 43.7293 11.4755Z" fill="white"/>
<path d="M62.295 17.623V22.623H49.5458C46.4015 23.0903 43.8655 25.5378 43.1229 28.7214C43.0458 29.0476 42.9884 29.3821 42.9507 29.7247C42.9163 30.0296 42.8999 30.3411 42.8999 30.6558C42.8999 30.9706 42.9163 31.2821 42.9507 31.587C42.9688 31.7575 42.9917 31.9263 43.0212 32.0919C42.9983 32.0952 42.9737 32.0985 42.9507 32.1001C41.9245 32.228 40.854 32.2952 39.754 32.2952C38.654 32.2952 37.5835 32.228 36.5573 32.1001C36.5343 32.0985 36.5097 32.0952 36.4868 32.0919C36.5163 31.9263 36.5392 31.7575 36.5573 31.587C36.5917 31.2821 36.6081 30.9706 36.6081 30.6558C36.6081 30.3411 36.5917 30.0296 36.5573 29.7247C36.5196 29.3821 36.4622 29.0476 36.3851 28.7214C35.6425 25.5378 33.1065 23.0903 29.9622 22.623H17.377V17.623H25.8196C28.4163 17.623 30.8491 17.9657 32.9294 18.5624C34.3114 18.9591 35.5376 19.4657 36.5573 20.0591C37.8245 20.7968 38.772 21.6689 39.2933 22.623C39.5933 23.1706 39.754 23.7476 39.754 24.3411C39.754 23.7476 39.9147 23.1706 40.2147 22.623C40.736 21.6689 41.6835 20.7968 42.9507 20.0591C43.9704 19.4657 45.1966 18.9591 46.5786 18.5624C48.6589 17.9657 51.0917 17.623 53.6884 17.623H62.295Z" fill="white"/>
<path d="M3.93443 17.623H0V22.705H3.93443V17.623Z" fill="white"/>
<path d="M9.01646 11.3936H5.08203V28.9345H9.01646V11.3936Z" fill="white"/>
<path d="M14.9178 4.18066H10.9834V36.1479H14.9178V4.18066Z" fill="white"/>
<path d="M76.0656 22.7051H80V17.6231H76.0656V22.7051Z" fill="white"/>
<path d="M70.9835 28.9346H74.918V11.3936H70.9835V28.9346Z" fill="white"/>
<path d="M65.0822 36.1475H69.0166V4.18025H65.0822V36.1475Z" fill="white"/>
</g>
<defs>
<clipPath id="clip0_60_503">
<rect width="80" height="40" fill="white"/>
</clipPath>
</defs>
</svg>
